<svg xmlns="http://www.w3.org/2000/svg" width="519.557" height="480.584" viewBox="0 0 519.557 480.584">
  <g id="kauVh1.tif" transform="translate(-387.573 -224.361)">
    <g id="Group_10150" data-name="Group 10150">
      <path id="Path_6710" data-name="Path 6710" d="M823.4,284.8c-16.2-15.8-34.4-29-55.3-38-62.7-27-162.6-19.1-217,24.5-22.7,18.2-40.9,46.1-50.1,73.6s-3.9,23.9-11.7,32.2c-5.5,5.8-12.5,5.7-16.5-1.5,0-2.9,13.4.1,14.8-4.1s-4.1-12.5-4.8-17.9c-6.1-51.2,54.7-92,96.2-108.2,74.9-29.2,175.1-31.8,243,16.6,102.3,72.9,111.9,218.5,31.5,311.8-45.7,53.1-149.6,125.6-220.6,130.7-6.7.5-31.7,2.5-29.3-9.2,5.1-9.5,10.5-19,15.2-28.8,25-51.6,49.5-108.9,64-164.5,17.1-65.4,22.5-127.5-.8-191.9.3-13.544,8.4-28.853,11.6-32.6s4.8,10.2,5.3,12.7c21.5,98.8-5.3,206.1-32.4,301.4-8.2,28.8-19.1,58.2-26.8,87s-2.2,8.5-1,10.1c2.4,1.5,6.3,1.1,9.1,1,65.9-3.4,158.3-99,194.5-150.8,10.5-15.1,19-29,24.1-46.8,21.1-73.8,13.3-152-43.1-207Z"/>
      <path id="Path_6711" data-name="Path 6711" d="M585.8,287.6c-15.1,17.7-25.6,40.3-38.9,59.4-28.2,40.7-74,67.4-119.1,86-4.1,5.8,18.3,14.9,22.6,15.6,7.2,1.3,24.4.1,29.1,5.9,7.4,9.1-1.2,15.5-9.8,17.9-13.6,3.8-25.2,5.9-35,17.9-15.8,19.2-6.2,40.9,6.2,58.7,30.2,43.4,68.5,58.8,118.3,34.8,7.5-3.6,26.2-15.5,28.1-23.8s-2.5-14.9,6.8-15.2c10.7-.3,25.8,27.2,23.2,36.2s-7.5.2-10.3-.2c-16.2-2.7-59.6,18.4-81.8,20.9C441.9,610.9,381.9,512,388,437.6c.567-25.416,4.3-24.4,7-26.9,5.1-4.6,30-5.5,38.1-6.8,42.5-6.9,72.1-19.2,100.6-52.1,29.9-34.6,47.5-93.9,97.6-106,6.1-1.5,18.3-3.8,16,6-3,12.9-18.3,8.3-27.2,10.8-12.3,3.5-26,15.6-34.1,25.2Z"/>
      <path id="Path_6712" data-name="Path 6712" d="M630.1,281.4c9.7-2.1,8.9,3.5,1.5,7.5-30.6,16.7-49,28.2-66,60.8-38.1,73.1-9.2,124.8,48.3,172.9,5.2,4.4,22.6,15.2,24.7,20.2s1.3,32.4.7,38.1-1.7,12.1-5.4,11.5c-3.3-1.9-2.7-5.9-3.9-9.1-15.7-42.5-33.6-52.1-61.1-83.6-37.5-43.1-39.5-77.5-21.2-130.9,10.9-31.7,48.1-80,82.3-87.4Z"/>
      <path id="Path_6713" data-name="Path 6713" d="M579.5,398c.8-1,16.1,2,18.8,2.7,12.1,3.2,20.1,14.4,8.1,23.7-4.1,3.2-21.5,11.5-21.7,2.1s2.4-13.2-1.6-22.5-3.4-3.4-3.5-6Zm13.9,11.9c-.2,2.4-.8,11.6,3.4,10.9S600.7,408.1,593.4,409.9Z"/>
    </g>
  </g>
</svg>
