<svg xmlns="http://www.w3.org/2000/svg" xmlns:xlink="http://www.w3.org/1999/xlink" width="140" height="140" viewBox="0 0 140 140">
  <defs>
    <clipPath id="clip-path">
      <rect id="Rectangle_2452" data-name="Rectangle 2452" width="140" height="140" transform="translate(720 317)" fill="#fff" stroke="#707070" stroke-width="1"/>
    </clipPath>
  </defs>
  <g id="Mask_Group_18" data-name="Mask Group 18" transform="translate(-720 -317)" clip-path="url(#clip-path)">
    <g id="環保集點GreenPoint" transform="translate(719.999 338)">
      <path id="Path_1594" data-name="Path 1594" d="M89.494,70.983c7.248-.07,14.8,4.091,21.379,10.439,5.435,5.246,9.732,11.428,14.264,17.412,5.183,6.84,10.562,13.5,17.644,18.524,5.256,3.729,11.03,5.98,17.588,5.757,8.264-.282,18.444-6.727,19.988-16.163a12.9,12.9,0,0,0-6.87-13.988c-6.136-3.327-12.577-3.539-19.251-1.833-7.627,1.952-13.4,6.485-18.162,12.531-.169.216-.355.422-.538.631-1.215,1.4-2.411,1.62-3.539.654-1.152-.986-1.082-2.105.1-3.606,5.5-6.979,12.149-12.318,20.921-14.583,7.285-1.883,14.533-2.195,21.479,1.255a20.258,20.258,0,0,1,8.251,28.485c-7.776,13.026-23.757,17.807-38.16,11.415-8.361-3.709-14.958-9.675-21.037-16.326-5.568-6.093-9.968-13.092-15.151-19.48a41.354,41.354,0,0,0-9.725-9.167,20.948,20.948,0,0,0-23.913.807c-1.266.92-.793,1.432-2.142-.133-1.225-1.421-2.547-2.762-3.845-4.12-1.335-1.4-1.644-.943.216-2.291,5.475-3.968,11.5-6.212,20.5-6.222Z" transform="translate(-45.616 -47.85)" fill="#008742"/>
      <path id="Path_1595" data-name="Path 1595" d="M298.668,33a16.5,16.5,0,1,1,16.489-16.535A16.48,16.48,0,0,1,298.668,33Z" transform="translate(-188.471)" fill="#a9cc06"/>
      <path id="Path_1596" data-name="Path 1596" d="M37.088,141.75c2.557,2,4.934,3.881,7.335,5.731A1.579,1.579,0,0,1,45,148.776c.684,10.134,8.54,18.228,19.7,19.909a48.248,48.248,0,0,0,34.7-7.836c1.4-.923,2.663-.853,3.483.335.926,1.338.365,2.394-.757,3.284A58.173,58.173,0,0,1,76.232,176.4c-8.51,1.57-16.7.747-24.471-3.274a28.969,28.969,0,0,1-14.672-31.37Z" transform="translate(-24.355 -95.228)" fill="#a9cc06"/>
      <path id="Path_1597" data-name="Path 1597" d="M49.42,86.185A57.114,57.114,0,0,1,.187,47.779c-.418-1.265-.153-1.73,1.033-2.122a43.507,43.507,0,0,0,4.917-1.949c1.165-.551,1.534-.216,1.9.933a58.49,58.49,0,0,0,12.4,21.685A59.66,59.66,0,0,0,56.409,85.753c.349.056.807-.11.993.388a45.453,45.453,0,0,1-7.982.04Z" transform="translate(0 -29.023)" fill="#a9cc06"/>
      <path id="Path_1598" data-name="Path 1598" d="M148.833,171.485l7.982-.04a1.793,1.793,0,0,1,2.059.07,34.922,34.922,0,0,1-10.044-.03Z" transform="translate(-99.449 -114.749)" fill="#dde9a9"/>
      <text id="Green_Point" data-name="Green Point" transform="translate(12.106 96)" fill="#038944" font-size="13" font-family="Arial-BoldMT, Arial" font-weight="700"><tspan x="0" y="0">G</tspan><tspan y="0" letter-spacing="-0.01em">r</tspan><tspan y="0">een </tspan><tspan y="0" letter-spacing="-0.03em">P</tspan><tspan y="0">oint</tspan></text>
    </g>
  </g>
</svg>
