<svg xmlns="http://www.w3.org/2000/svg" width="22" height="22" viewBox="0 0 22 22">
    <path fill="#000" fill-rule="evenodd" d="M3.192 3.34C5.352 1.112 7.955 0 11 0s5.64 1.105 7.783 3.315C20.928 5.525 22 8.185 22 11.295c0 2.455-.704 4.665-2.112 6.63-1.407 1.963-3.208 3.322-5.401 4.075h-.197c-.393 0-.59-.196-.59-.59l.025-1.104c.017-.704.025-1.35.025-1.94 0-.95-.262-1.653-.786-2.112 1.506-.196 2.726-.679 3.659-1.448.933-.77 1.4-2.136 1.4-4.1 0-1.18-.377-2.194-1.13-3.045.327-.95.295-1.948-.098-2.996h-.246c-.753 0-1.686.393-2.799 1.179A10.328 10.328 0 0 0 11 5.45c-.884 0-1.8.13-2.75.393-1.113-.786-2.046-1.179-2.8-1.179h-.245c-.393 1.048-.425 2.046-.098 2.996-.753.85-1.13 1.866-1.13 3.044 0 1.965.459 3.331 1.376 4.1.916.77 2.128 1.253 3.634 1.45-.36.36-.59.867-.688 1.522a2.815 2.815 0 0 1-1.277.294c-.818 0-1.457-.409-1.915-1.227-.425-.72-.998-1.113-1.719-1.179-.687 0-.703.23-.049.688.491.262.9.818 1.228 1.67.033.13.098.286.196.466.099.18.369.417.81.712.443.295.975.442 1.597.442.458 0 .818-.033 1.08-.098v1.915c0 .36-.18.54-.54.54h-.197c-2.226-.753-4.035-2.103-5.426-4.051S0 13.783 0 11.295c0-3.11 1.064-5.762 3.192-7.956z" opacity=".7"/>
</svg>
