<svg xmlns="http://www.w3.org/2000/svg" xmlns:xlink="http://www.w3.org/1999/xlink" width="163" height="77.449" viewBox="0 0 163 77.449">
  <defs>
    <clipPath id="clip-path">
      <rect id="Rectangle_1703" data-name="Rectangle 1703" width="163" height="77.449"/>
    </clipPath>
  </defs>
  <g id="Group_5417" data-name="Group 5417" transform="translate(0 0)">
    <g id="Group_5417-2" data-name="Group 5417" transform="translate(0 0)" clip-path="url(#clip-path)">
      <path id="Path_7135" data-name="Path 7135" d="M151.1,29.449c.713.9.23,1.466-.645,1.491a22.326,22.326,0,0,1-4.72-.257c-6.19-1.156-12.336-2.55-18.543-3.6a65.744,65.744,0,0,0-9.909-.806c-5.476-.087-10.956.078-16.436.121-.621,0-1.243-.138-1.863-.131-.938.011-1.876.1-2.813.143-.983.048-1.965.075-2.946.134-.422.025-.841.107-1.261.164q-3.338.451-6.674.9c-3.328.451-6.661.868-9.981,1.368-5.188.781-10.353,1.713-15.645,1.02-3.891-.509-6.729-2.514-7.324-5.9a21.567,21.567,0,0,1,.287-5.544c.02-.217.5-.505.8-.559.8-.143,1.63-.178,2.711-.28a3.956,3.956,0,0,1,1.173,3.114c.024,2.3.72,3.309,3,3.676a46.277,46.277,0,0,0,12.791.557c2.53-.3,5.072-.492,7.595-.838,4.727-.647,9.436-1.442,14.17-2.03,1.993-.248,4.032-.123,6.049-.178,6.731-.18,13.463-.547,20.19-.481a82.811,82.811,0,0,1,11.428,1.236c4.417.666,8.795,1.585,13.2,2.338a9.754,9.754,0,0,0,2.712.034,3.215,3.215,0,0,1,2.722.855c1.419,1.228,1.891,1.938-.071,3.451" transform="translate(10.593 3.593)"/>
      <path id="Path_7136" data-name="Path 7136" d="M11.109,30.055A9.352,9.352,0,0,0,12.168,28.4a22.821,22.821,0,0,0,.754-2.776A11.943,11.943,0,0,1,15.4,20.184a4.482,4.482,0,0,0,.99-2.163c.219-1.317,1-1.5,2.075-1.368,1.274.155,1.026,1,.68,2.082l1.567-1.095a31.745,31.745,0,0,1-.3,3.243c-.439,2.157-.877,4.325-1.517,6.428a9.143,9.143,0,0,1-1.613,2.5c-.367.5-1.068.836-1.24,1.369-2.066,6.4-4.306,12.75-6.007,19.244C8.3,57.064,7.109,63.844,5.662,70.557a18.679,18.679,0,0,1-.619,1.915A2.091,2.091,0,0,1,2.5,74.042,2.5,2.5,0,0,1,.147,71.9a3.991,3.991,0,0,1,.693-3.6c.689-.915.771-2.327,1-3.542.927-4.857,1.526-9.8,2.828-14.554.645-2.356,1-4.846,2.062-7.092.511-1.087,1.155-2.113,1.72-3.177a2.649,2.649,0,0,0,.177-.676c.364-1.673.665-3.362,1.108-5.013.307-1.14.832-2.22,1.2-3.346.077-.236-.1-.553-.153-.834l.322,0" transform="translate(0 3.37)"/>
      <path id="Path_7137" data-name="Path 7137" d="M14.508,32.859c.937-.521,1.89-1.072,2.861-1.584a6.139,6.139,0,0,0,3.159-4.052c.819-2.869,1.327-5.652.5-8.619-.694-2.491-1.841-4.515-4.264-5.659A2.373,2.373,0,0,1,15.2,10.436a2.888,2.888,0,0,1,.6-1.119,11.791,11.791,0,0,0,.757-.966,1.734,1.734,0,0,1,2.62-.74,16.465,16.465,0,0,1,7.264,17.129A14.958,14.958,0,0,1,20.882,34.3a7.057,7.057,0,0,1-1.8,1.17c-3.058,1.06-4.025.711-4.569-2.608" transform="translate(2.942 1.477)"/>
      <path id="Path_7138" data-name="Path 7138" d="M40.15,23.944a7.975,7.975,0,0,1-.714,2.276,2.274,2.274,0,0,1-2.95.747c-1.858-.775-2.5-4.683-1.115-6.139.68-.716,1.16-.4,1.947-.192,1.823.476,2.611,1.049,2.77,2.706.013.142.029.284.063.6" transform="translate(7.022 4.134)"/>
      <path id="Path_7139" data-name="Path 7139" d="M83.572.326v.64A.9.9,0,0,0,83.888,1C85.706.409,85.7.408,86.664,2.981a2.619,2.619,0,0,1-1.476,2.91c-1.032.314-2.222.856-3.094-.178-.894-1.061-1.449-2.293-.376-3.651C82.231,1.413,82.649.689,83.11,0l.462.326" transform="translate(16.454 0)"/>
    </g>
  </g>
</svg>
