<?xml version="1.0" encoding="utf-8"?>
<!-- Generator: Adobe Illustrator 16.0.0, SVG Export Plug-In . SVG Version: 6.00 Build 0)  -->
<!DOCTYPE svg PUBLIC "-//W3C//DTD SVG 1.1//EN" "http://www.w3.org/Graphics/SVG/1.1/DTD/svg11.dtd">
<svg version="1.1" id="圖層_1" xmlns="http://www.w3.org/2000/svg" xmlns:xlink="http://www.w3.org/1999/xlink" x="0px" y="0px"
	 width="385px" height="385px" viewBox="0 0 385 385" enable-background="new 0 0 385 385" xml:space="preserve">
<path fill-rule="evenodd" clip-rule="evenodd" d="M384.476,196.233c0,3,0,5.999,0,8.999c-1.957,7.48-6.632,13.263-11.726,18.778
	c-5.169,5.597-10.216,11.313-15.548,16.752c-25.79,26.295-54.235,49.068-87.553,65.262c-25.051,12.175-51.345,19.123-79.394,18.724
	c-31.629-0.451-60.562-10.156-87.83-25.482c-33.233-18.68-61.536-43.401-86.915-71.629C9.457,220.9,2.866,214.477,0.524,205.232
	c0-3,0-6,0-8.999c1.791-5.635,4.433-10.755,8.601-15.065c11.633-12.029,22.663-24.701,34.902-36.074
	c27.505-25.556,58.233-46.254,93.97-58.792c22.096-7.752,44.81-11.173,68.178-9.035c26.914,2.463,51.793,11.46,75.313,24.45
	c34.31,18.949,63.392,44.276,89.246,73.503C376.333,181.551,382.321,187.644,384.476,196.233z M192.486,283.464
	c45.698,0.013,82.668-36.955,82.692-82.695c0.024-45.717-36.927-82.67-82.67-82.675c-45.739-0.005-82.697,36.94-82.686,82.656
	C109.834,246.486,146.779,283.451,192.486,283.464z"/>
<path fill-rule="evenodd" clip-rule="evenodd" d="M251.651,200.682c0.028,32.557-26.543,59.199-59.075,59.236
	c-32.537,0.038-59.188-26.547-59.226-59.081c-0.036-32.547,26.532-59.188,59.071-59.232
	C224.957,141.561,251.622,168.158,251.651,200.682z"/>
</svg>
